<?xml version="1.0" encoding="utf-8"?>
<!-- Generator: Adobe Illustrator 16.0.0, SVG Export Plug-In . SVG Version: 6.00 Build 0)  -->
<!DOCTYPE svg PUBLIC "-//W3C//DTD SVG 1.1//EN" "http://www.w3.org/Graphics/SVG/1.1/DTD/svg11.dtd">
<svg version="1.1" id="Livello_1" xmlns="http://www.w3.org/2000/svg" xmlns:xlink="http://www.w3.org/1999/xlink" x="0px" y="0px"
	 width="16px" height="16px" viewBox="0 0 128 128" enable-background="new 0 0 128 128" xml:space="preserve">
<g>
	<path fill-rule="evenodd" clip-rule="evenodd" fill="#333333" d="M64.52,91.773c-10.348,0.001-20.696,0.013-31.045-0.004
		c-6.942-0.011-9.23-2.281-9.252-9.176c-0.021-6.972,0.061-13.943-0.043-20.914c-0.032-2.103,0.589-2.834,2.766-2.829
		c25.053,0.063,50.107,0.063,75.161,0c2.183-0.006,2.789,0.738,2.76,2.834c-0.103,7.297,0.027,14.597-0.063,21.894
		c-0.069,5.649-2.573,8.135-8.258,8.173C85.87,91.823,75.195,91.772,64.52,91.773z"/>
	<path fill-rule="evenodd" clip-rule="evenodd" fill="#333333" d="M104.402,47.479c-26.574,0-53.183,0-79.758,0
		c-1.239-6.6,1.472-10.165,7.873-10.183c21.336-0.062,42.673-0.061,64.009,0C102.928,37.314,105.638,40.875,104.402,47.479z"/>
	<rect x="24" y="50" opacity="0.3" fill-rule="evenodd" clip-rule="evenodd" fill="#333333" width="80" height="7"/>
</g>
</svg>
